<?xml version="1.0" standalone="no"?>
<!DOCTYPE svg PUBLIC "-//W3C//DTD SVG 20010904//EN"
 "http://www.w3.org/TR/2001/REC-SVG-20010904/DTD/svg10.dtd">
<svg version="1.0" xmlns="http://www.w3.org/2000/svg"
 width="1024.000000pt" height="1024.000000pt" viewBox="0 0 1024.000000 1024.000000"
 preserveAspectRatio="xMidYMid meet">

<g transform="translate(0.000000,1024.000000) scale(0.100000,-0.100000)"
fill="#000000" stroke="none">
<path d="M0 5120 l0 -5120 5120 0 5120 0 0 5120 0 5120 -5120 0 -5120 0 0
-5120z m7633 3514 c51 -17 103 -68 139 -136 18 -35 22 -58 22 -128 -1 -73 -5
-94 -31 -150 -16 -36 -48 -84 -69 -105 -66 -67 -217 -207 -279 -260 -33 -27
-224 -214 -425 -415 -201 -201 -422 -419 -490 -484 -69 -66 -307 -300 -530
-521 -223 -220 -612 -603 -865 -850 -253 -248 -597 -585 -765 -751 -902 -889
-1392 -1367 -1540 -1499 -91 -81 -203 -182 -250 -224 -140 -125 -229 -202
-350 -301 -63 -52 -170 -145 -237 -207 -67 -62 -125 -113 -128 -113 -3 0 29
44 72 97 43 54 106 136 142 183 78 105 132 169 236 285 45 50 99 113 121 140
75 96 285 341 399 465 119 128 228 249 534 590 183 204 423 461 551 590 41 41
156 163 255 270 99 107 218 235 265 285 47 50 148 160 225 245 77 85 194 211
260 280 136 142 366 390 629 679 98 108 236 257 305 331 69 74 158 168 196
210 71 75 314 347 478 534 49 56 123 144 165 196 207 256 558 636 655 707 90
66 215 89 310 57z m570 -318 c18 -7 41 -23 52 -35 19 -22 19 -44 17 -1459 -1
-932 -5 -1449 -12 -1472 -5 -19 -10 -55 -10 -80 -1 -62 -17 -101 -84 -203 -36
-55 -65 -114 -77 -155 -25 -88 -53 -127 -194 -265 -223 -219 -400 -307 -615
-307 -160 0 -246 29 -405 136 -96 64 -173 141 -250 249 -74 104 -104 165 -154
310 -126 373 -78 864 125 1275 121 246 281 470 508 709 254 270 356 440 356
596 0 56 3 65 34 101 l34 39 25 -24 c81 -75 74 -188 -22 -386 -56 -115 -131
-218 -261 -360 -50 -55 -117 -131 -148 -170 -31 -38 -78 -95 -103 -125 -74
-87 -219 -315 -281 -440 -69 -139 -98 -224 -135 -395 -27 -125 -28 -141 -28
-400 l0 -270 38 -118 c21 -66 49 -142 64 -170 88 -176 276 -349 430 -397 126
-39 289 -23 411 39 53 28 90 56 268 201 116 95 232 220 245 265 24 86 28 336
29 1693 l0 1412 -50 0 c-63 0 -65 13 -10 95 21 32 44 71 51 87 11 27 27 33 92
37 15 0 42 -5 60 -13z m-1547 -11 c2 -5 -36 -51 -84 -102 l-87 -92 -2175 -4
-2175 -4 -2 -2407 -1 -2407 -98 -102 c-55 -56 -102 -103 -105 -105 -16 -7 -19
343 -19 2656 0 2708 -4 2527 52 2567 21 14 236 15 2357 13 1545 -2 2335 -6
2337 -13z m-456 -468 l174 -2 -99 -110 c-54 -60 -156 -166 -226 -235 -79 -77
-164 -174 -223 -254 -53 -70 -96 -131 -96 -135 0 -7 -2203 -3 -2236 4 -39 9
-173 104 -242 172 -94 93 -115 148 -110 288 4 107 17 145 67 198 40 44 99 70
171 76 60 6 2419 4 2820 -2z m-3415 -461 c83 -38 135 -115 135 -199 0 -54 -42
-124 -94 -157 -87 -53 -216 -9 -268 93 -25 51 -28 129 -5 174 28 53 112 112
162 113 11 0 43 -11 70 -24z m2701 -465 c19 -5 13 -13 -52 -74 l-74 -69 -890
2 c-584 0 -900 4 -918 11 -63 24 -78 65 -41 113 l21 26 966 -1 c532 -1 977 -4
988 -8z m-2704 -108 c26 -24 27 -202 1 -226 -31 -28 -66 -30 -96 -7 -26 20
-27 26 -27 108 0 80 2 88 27 114 30 32 67 36 95 11z m2407 -222 c11 -7 1 -23
-45 -75 l-59 -66 -767 3 c-761 2 -767 2 -795 23 -35 26 -40 62 -13 97 l21 27
822 0 c460 0 828 -4 836 -9z m-2412 -253 c17 -20 21 -41 26 -146 l6 -122 -27
-25 c-33 -30 -61 -32 -96 -4 -26 20 -26 22 -26 145 0 119 1 126 25 149 30 31
65 32 92 3z m2110 -66 c21 -7 20 -11 -35 -74 l-57 -68 -616 0 -616 0 -34 23
c-43 29 -50 69 -18 103 l22 24 666 -1 c366 -1 676 -4 688 -7z m1233 -31 c16
-31 12 -63 -12 -88 -18 -19 -32 -23 -85 -23 l-64 0 35 31 c19 17 45 46 56 65
24 38 54 44 70 15z m-1670 -291 l175 0 -76 -75 -76 -74 -458 5 c-416 4 -462 6
-490 22 -42 25 -46 72 -9 108 l26 27 367 -6 c201 -4 445 -7 541 -7z m1645 -6
c8 -9 22 -29 31 -45 17 -33 7 -61 -27 -79 -19 -11 -505 -17 -515 -7 -2 2 11
14 29 27 18 12 43 38 55 56 21 32 26 34 80 36 92 3 106 4 122 11 22 9 66 14
142 16 49 1 71 -3 83 -15z m-3315 -152 c21 -17 23 -26 23 -137 0 -104 -2 -120
-19 -132 -34 -25 -64 -27 -92 -6 -26 19 -27 24 -30 133 -2 105 -1 115 19 136
27 29 68 31 99 6z m1217 -162 c263 0 314 -2 311 -14 -2 -7 -33 -41 -71 -75
l-67 -61 -309 0 -309 0 -31 26 c-38 31 -41 71 -8 101 32 30 46 33 111 28 32
-3 200 -5 373 -5z m2104 -19 c34 -35 38 -72 9 -101 -19 -19 -33 -20 -437 -20
l-417 0 37 28 c20 15 51 46 68 70 l31 42 69 0 c42 0 68 -4 64 -10 -3 -5 7 -3
22 5 22 12 79 15 276 15 l249 0 29 -29z m-2085 -312 c3 -6 -25 -41 -64 -80
l-71 -69 -151 0 c-165 0 -206 9 -235 53 -13 21 -14 30 -4 49 31 60 22 58 280
58 162 0 240 -4 245 -11z m2093 -15 c34 -44 36 -64 7 -93 l-26 -26 -556 0
c-305 0 -562 3 -571 6 -14 5 -13 9 10 24 16 10 41 37 58 61 l29 43 98 4 c53 1
285 4 514 5 l417 2 20 -26z m-3329 -4 c19 -19 20 -33 20 -209 0 -214 -2 -221
-70 -221 -68 0 -70 7 -70 225 0 189 1 194 22 209 31 22 74 20 98 -4z m876
-300 c35 0 64 -4 64 -10 0 -5 -28 -39 -61 -75 -42 -44 -69 -65 -85 -65 -25 0
-94 54 -94 75 0 34 68 89 98 79 8 -2 43 -4 78 -4z m2449 -14 c61 -61 30 -125
-63 -127 -59 -1 -1390 -1 -1417 1 -17 1 -14 6 17 33 21 18 49 48 63 67 l26 35
112 6 c62 3 365 6 675 7 l563 2 24 -24z m2160 -288 c3 -7 6 -600 8 -1318 l2
-1305 -22 -25 -21 -25 -3130 -3 -3130 -2 -31 35 c-30 35 -31 37 -30 138 0 56
3 109 7 118 4 8 43 46 87 83 44 38 90 80 102 95 13 14 23 22 24 16 1 -5 0 -70
-1 -142 l-2 -133 2967 0 2966 0 -1 1161 c-1 954 1 1164 12 1175 35 33 173 144
180 144 5 0 11 -6 13 -12z m-2169 -33 c11 -7 27 -28 34 -46 13 -31 12 -33 -18
-60 l-32 -29 -869 0 c-478 0 -882 3 -900 6 l-31 6 71 68 70 67 86 2 87 2 -19
-23 -20 -23 25 21 c14 12 31 23 37 25 7 2 338 3 735 1 591 -3 727 -6 744 -17z
m20 -340 c30 -38 30 -57 0 -92 l-24 -28 -1034 1 c-625 0 -1049 4 -1073 10
l-40 10 48 32 c26 18 55 45 64 60 10 15 22 31 28 35 5 4 459 7 1008 5 l999 -3
24 -30z m-1033 -295 l999 0 29 -30 c38 -37 36 -74 -4 -104 -28 -21 -34 -21
-715 -21 -896 0 -1792 7 -1792 14 0 3 25 23 55 44 31 21 66 52 78 69 l22 29
107 -2 c59 -1 111 1 115 5 5 5 31 5 58 2 28 -3 499 -6 1048 -6z m1015 -347
c56 -35 50 -95 -12 -128 -28 -15 -139 -16 -1294 -13 l-1264 3 -24 30 c-32 40
-30 57 10 100 l34 36 1264 -7 c1073 -5 1266 -8 1286 -21z m52 -377 c39 -44
145 -130 202 -165 53 -32 113 -104 151 -180 29 -59 32 -74 32 -156 0 -141 -43
-216 -168 -297 l-49 -31 -1469 1 c-981 1 -1483 5 -1509 12 -118 32 -200 146
-208 291 -5 83 9 161 39 221 29 56 131 160 233 237 50 37 100 78 110 90 l20
22 1290 -3 1291 -3 35 -39z"/>
<path d="M7390 8427 c-54 -26 -208 -178 -342 -337 -54 -63 -135 -158 -180
-211 -130 -151 -201 -238 -222 -273 -21 -35 -17 -73 10 -100 18 -19 86 -21
117 -4 56 29 157 118 385 340 136 132 281 269 322 304 87 74 120 118 126 171
6 46 -20 102 -56 120 -39 20 -110 15 -160 -10z"/>
<path d="M7354 7838 l-29 -33 33 29 c30 28 37 36 29 36 -2 0 -16 -15 -33 -32z"/>
<path d="M7274 7758 l-29 -33 33 29 c17 17 32 31 32 33 0 8 -8 1 -36 -29z"/>
<path d="M7025 7522 c-38 -37 -92 -87 -120 -111 l-50 -43 60 45 c53 40 197
177 185 177 -3 0 -36 -31 -75 -68z"/>
<path d="M6779 7313 c-13 -16 -12 -17 4 -4 9 7 17 15 17 17 0 8 -8 3 -21 -13z"/>
<path d="M3663 7659 c-59 -17 -83 -87 -43 -124 25 -23 133 -34 154 -16 39 33
21 122 -26 136 -44 13 -53 13 -85 4z"/>
<path d="M4010 7657 c-13 -7 -29 -25 -34 -39 -20 -58 35 -108 121 -111 38 -2
48 2 69 26 40 47 27 98 -31 123 -42 17 -92 18 -125 1z"/>
<path d="M2682 7253 c-15 -6 -42 -56 -42 -78 0 -26 46 -65 77 -65 15 0 43 9
61 20 42 26 43 61 3 101 -28 28 -65 36 -99 22z"/>
<path d="M4259 4303 c-13 -16 -12 -17 4 -4 16 13 21 21 13 21 -2 0 -10 -8 -17
-17z"/>
<path d="M3911 3957 l-25 -32 32 29 c33 31 37 36 25 35 -5 0 -19 -14 -32 -32z"/>
<path d="M3652 2908 c-41 -20 -41 -80 1 -125 15 -17 32 -23 64 -23 46 0 64 17
77 72 13 57 -80 107 -142 76z"/>
<path d="M5535 2875 c-29 -28 -31 -45 -11 -84 28 -52 92 -66 131 -26 31 30 32
73 4 109 -28 36 -89 37 -124 1z"/>
<path d="M5832 2880 c-22 -21 -28 -53 -16 -85 9 -23 61 -47 87 -39 61 18 89
91 49 127 -26 24 -93 22 -120 -3z"/>
<path d="M5238 2673 c23 -2 61 -2 85 0 23 2 4 4 -43 4 -47 0 -66 -2 -42 -4z"/>
<path d="M4573 2663 c32 -2 81 -2 110 0 29 2 3 3 -58 3 -60 0 -84 -1 -52 -3z"/>
</g>
</svg>
