<?xml version="1.0" standalone="no"?>
<!DOCTYPE svg PUBLIC "-//W3C//DTD SVG 20010904//EN"
 "http://www.w3.org/TR/2001/REC-SVG-20010904/DTD/svg10.dtd">
<svg version="1.0" xmlns="http://www.w3.org/2000/svg"
 width="1024.000000pt" height="1024.000000pt" viewBox="0 0 1024.000000 1024.000000"
 preserveAspectRatio="xMidYMid meet">

<g transform="translate(0.000000,1024.000000) scale(0.100000,-0.100000)"
fill="#000000" stroke="none">
<path d="M3085 8274 c-143 -18 -202 -29 -279 -55 -353 -117 -634 -383 -750
-708 -15 -41 -36 -113 -48 -160 l-22 -86 -4 -2100 c-3 -1579 0 -2121 8 -2185
35 -246 161 -494 344 -675 140 -139 285 -228 472 -291 186 -62 23 -58 2273
-61 2276 -4 2123 -8 2339 62 411 133 688 432 810 874 l27 96 3 2035 c2 1292
-1 2082 -7 2165 -13 161 -43 272 -116 422 -69 143 -114 210 -216 317 -139 147
-335 259 -557 319 l-117 32 -2065 1 c-1136 1 -2078 0 -2095 -2z m4219 -296
c307 -85 527 -293 619 -583 54 -171 52 -93 52 -2290 l-1 -2040 -22 -103 c-78
-358 -273 -571 -637 -693 l-100 -34 -2095 0 -2095 0 -85 23 c-337 93 -553 308
-651 647 -39 136 -42 331 -35 2355 7 2061 5 1986 58 2158 49 160 145 293 291
403 120 91 263 151 426 179 25 4 975 7 2111 6 l2065 -1 99 -27z"/>
<path d="M7127 7520 c-20 -6 -56 -19 -80 -31 -72 -36 -320 -302 -425 -456 -22
-32 -109 -132 -193 -223 -145 -155 -231 -257 -374 -439 -33 -42 -101 -124
-151 -182 -51 -57 -110 -127 -132 -155 -21 -27 -87 -99 -144 -160 -58 -60
-138 -147 -179 -193 -41 -47 -119 -132 -173 -190 -55 -58 -134 -147 -175 -197
-42 -50 -161 -191 -266 -313 -211 -247 -289 -339 -409 -486 -149 -183 -329
-398 -501 -600 -216 -252 -273 -323 -371 -460 -44 -61 -105 -142 -136 -180
-32 -39 -95 -117 -140 -174 -46 -58 -105 -130 -133 -160 l-50 -56 46 40 c25
22 78 69 119 105 115 102 1376 1363 1586 1585 104 110 272 290 374 400 427
461 921 964 1452 1481 l227 220 35 -55 c96 -157 121 -245 113 -396 -10 -178
-67 -297 -242 -500 -74 -85 -180 -242 -215 -316 -80 -174 -110 -397 -76 -564
29 -140 115 -296 236 -428 113 -123 377 -295 495 -322 83 -20 109 -14 100 23
-15 62 -51 92 -295 251 -181 118 -315 277 -367 436 -23 70 -26 97 -26 210 -1
221 45 346 204 553 239 313 279 378 320 527 28 99 30 247 4 345 -20 79 -93
220 -149 290 l-41 52 62 66 c105 113 262 314 288 369 48 100 25 221 -52 265
-38 23 -114 31 -166 18z m26 -210 c75 -37 -4 -159 -295 -456 -179 -181 -254
-238 -284 -213 -34 28 11 155 93 262 159 207 328 380 398 406 28 11 52 18 55
17 3 -1 17 -8 33 -16z"/>
<path d="M3514 7509 c-118 -15 -220 -85 -254 -175 -63 -170 42 -429 208 -511
l57 -28 1150 -1 c633 -1 1237 -3 1343 -4 l193 -2 77 84 c114 124 224 261 252
315 29 56 32 131 6 181 -25 48 -83 102 -140 128 l-51 24 -1390 -1 c-764 -1
-1418 -5 -1451 -10z"/>
<path d="M3775 6626 c-35 -36 -35 -93 1 -106 16 -6 439 -10 1138 -10 l1114 0
6 30 c3 17 17 46 31 64 l25 33 -258 6 c-141 4 -657 7 -1145 7 l-888 0 -24 -24z"/>
<path d="M3776 6349 c-33 -26 -37 -88 -6 -119 20 -20 33 -20 1005 -20 614 0
985 4 985 9 0 6 22 36 48 68 26 32 51 64 56 71 6 9 -202 12 -1027 12 -1031 0
-1034 0 -1061 -21z"/>
<path d="M3787 6053 c-24 -6 -47 -55 -40 -84 3 -13 15 -34 26 -46 l20 -23 827
0 826 0 60 63 c33 34 66 70 73 80 13 16 -31 17 -880 16 -492 -1 -902 -3 -912
-6z"/>
<path d="M4462 5740 c-750 -6 -695 0 -708 -67 -3 -18 0 -43 8 -60 l13 -28 684
-5 684 -5 78 81 c44 44 79 83 79 87 0 4 -35 6 -77 5 -43 -2 -385 -5 -761 -8z"/>
<path d="M6020 5638 c-12 -24 -30 -51 -38 -60 -14 -17 -12 -18 31 -18 l47 0 0
60 c0 33 -4 60 -8 60 -5 0 -19 -19 -32 -42z"/>
<path d="M4348 5420 c-622 -6 -585 -1 -595 -76 -4 -29 0 -45 13 -62 l19 -22
538 -1 539 0 74 79 c41 44 74 83 74 86 0 3 -24 5 -52 4 -29 -2 -304 -5 -610
-8z"/>
<path d="M5795 5389 c-10 -18 -40 -57 -68 -86 l-50 -53 185 0 185 0 10 63 c15
88 8 97 -75 97 -37 0 -90 3 -119 6 -50 6 -51 6 -68 -27z"/>
<path d="M4180 5100 c-217 -3 -396 -7 -397 -8 -1 -1 -9 -15 -18 -32 -19 -37
-19 -70 1 -98 l15 -22 407 1 407 0 67 77 c37 41 65 79 62 84 -3 4 -38 7 -77 6
-40 -2 -250 -5 -467 -8z"/>
<path d="M5466 5029 c-35 -42 -62 -80 -59 -83 4 -3 149 -6 324 -6 l318 0 6 43
c4 24 5 56 3 73 l-3 29 -120 7 c-66 3 -184 8 -262 11 l-142 4 -65 -78z"/>
<path d="M3867 4790 c-89 -7 -106 -19 -114 -76 -4 -29 0 -45 14 -63 l19 -23
273 0 273 1 42 58 c24 32 50 64 59 72 10 7 17 20 17 27 0 12 -44 14 -252 12
-139 0 -288 -4 -331 -8z"/>
<path d="M5222 4770 c-9 -14 -38 -51 -65 -82 -39 -46 -45 -58 -30 -59 151 -5
924 -5 927 0 3 4 8 30 12 58 5 43 3 54 -14 71 -26 26 -110 32 -511 35 l-304 2
-15 -25z"/>
<path d="M4885 4400 c-41 -47 -72 -86 -70 -88 2 -2 279 -3 617 -3 688 2 638
-4 638 76 0 30 -6 47 -21 61 -20 18 -48 19 -483 26 -253 4 -494 8 -535 10
l-73 4 -73 -86z"/>
<path d="M3803 4473 c-46 -9 -68 -80 -42 -137 11 -24 14 -24 153 -28 127 -3
142 -1 154 15 8 10 38 47 68 81 29 35 50 66 47 70 -7 7 -344 6 -380 -1z"/>
<path d="M4571 4081 l-83 -91 785 0 c874 0 797 -7 797 70 0 22 -8 47 -19 61
-17 21 -29 24 -152 30 -74 4 -375 7 -669 8 -294 1 -544 4 -555 7 -17 4 -38
-14 -104 -85z"/>
<path d="M3772 4152 c-19 -13 -26 -112 -10 -142 20 -37 41 -35 63 6 11 21 40
57 64 81 24 24 42 45 40 47 -10 9 -146 15 -157 8z"/>
<path d="M4257 3762 l-76 -87 92 -5 c51 -3 473 -3 937 0 l845 5 3 62 c3 56 1
64 -20 77 -21 14 -131 16 -843 21 -451 3 -830 8 -841 10 -17 4 -38 -14 -97
-83z"/>
<path d="M3983 3493 c-21 -20 -123 -113 -228 -206 -104 -93 -266 -244 -359
-335 -179 -176 -183 -184 -120 -206 20 -8 510 -11 1549 -11 l1520 1 52 27
c115 60 164 141 171 284 5 103 -6 159 -46 241 -31 64 -129 159 -198 193 l-49
24 -1115 5 c-613 3 -1120 8 -1127 13 -7 4 -27 -7 -50 -30z"/>
<path d="M3288 3392 c-41 -29 -88 -88 -88 -109 0 -7 -11 -38 -25 -69 -14 -32
-24 -58 -22 -60 1 -2 44 58 94 131 50 74 88 135 85 135 -4 -1 -24 -13 -44 -28z"/>
</g>
</svg>
